<mxfile host="app.diagrams.net" modified="2023-11-09T03:09:03.914Z" agent="Mozilla/5.0 (Windows NT 10.0; Win64; x64) AppleWebKit/537.36 (KHTML, like Gecko) Chrome/119.0.0.0 Safari/537.36" version="22.1.0" etag="yPbz5jjmkMi2mWotP2qg" type="github">
  <diagram name="第 1 页" id="X5Vm9NSqfif9E05FRqca">
    <mxGraphModel>
      <root>
        <mxCell id="0" />
        <mxCell id="1" parent="0" />
      </root>
    </mxGraphModel>
  </diagram>
</mxfile>
